<svg width="124" height="124" viewBox="0 0 124 124" fill="none" xmlns="http://www.w3.org/2000/svg">
    <circle cx="62" cy="62" r="62" fill="#121212"/>
    <path d="M88.8995 60.9498C88.8995 57.0544 88.0551 53.2053 86.4243 49.6676C84.7936 46.13 82.4153 42.988 79.4533 40.4579C76.4914 37.9279 73.0162 36.0701 69.2671 35.0124C65.518 33.9547 61.5842 33.7224 57.7367 34.3313C53.8892 34.9403 50.2195 36.3761 46.9803 38.5399C43.7411 40.7036 41.0094 43.5438 38.9736 46.8649C36.9377 50.1859 35.646 53.9089 35.1874 57.7772C34.5906 62.8116 37.9696 67.2193 42.5485 69.3954L43.0819 69.6489C45.8554 70.9671 48.8877 71.651 51.9585 71.651H52.1728C48.9205 66.2723 49.4124 61.2702 49.6236 59.4886C49.8349 57.7069 50.4298 55.9922 51.3675 54.4626C52.3051 52.933 53.5633 51.6249 55.0552 50.6283C56.5471 49.6317 58.2373 48.9704 60.0093 48.69C61.7814 48.4095 63.5932 48.5165 65.32 49.0036C67.0467 49.4908 68.6473 50.3465 70.0115 51.5117C71.3757 52.677 72.4711 54.1242 73.2222 55.7535C74.4618 58.4426 76.7626 60.9498 79.7236 60.9498H88.8995Z" fill="white"/>
    <path d="M89.2102 72.2517C68.0853 103.085 35 85.6877 35 65.8832C35.1361 65.2612 35.3998 66.2634 36.3499 67.5392C41.4078 74.3311 53.746 75.94 61.9734 73.9341C70.5007 71.8549 80.398 65.2318 89.2102 72.2517Z" fill="white"/>
    <path d="M66.7351 69.2563C66.7351 65.3161 73.4749 59.9572 79.9329 67.0214C74.9505 65.8597 71.3779 69.8983 66.7351 69.2563Z" fill="white"/>
</svg>
