<svg width="72" height="71" viewBox="0 0 72 71" fill="none" xmlns="http://www.w3.org/2000/svg">
<path d="M25.7259 15.6922L24.157 17.2611L24.157 17.2611L25.7259 15.6922ZM18.0368 9.66983C16.8189 9.53446 15.7219 10.412 15.5865 11.6299C15.4511 12.8478 16.3287 13.9448 17.5465 14.0802L18.0368 9.66983ZM25.7259 34.519L27.2947 36.0879L27.2947 36.0879L25.7259 34.519ZM6.89914 34.519L5.33023 36.0878L5.33028 36.0879L6.89914 34.519ZM8.46804 17.2611C9.33451 16.3946 9.33451 14.9898 8.46804 14.1233C7.60156 13.2568 6.19673 13.2568 5.33025 14.1233L8.46804 17.2611ZM40.7407 18.1506L42.3096 16.5817L42.3095 16.5817L40.7407 18.1506ZM53.2917 18.1506L54.8606 19.7195L54.8606 19.7195L53.2917 18.1506ZM53.2917 5.59942L54.8606 4.03051L54.8606 4.03051L53.2917 5.59942ZM40.7407 5.59942L42.3095 7.16833L42.3096 7.16827L40.7407 5.59942ZM46.9332 57.359C46.0668 58.2255 46.0668 59.6303 46.9332 60.4968C47.7997 61.3632 49.2045 61.3632 50.071 60.4968L46.9332 57.359ZM58.9279 48.5021L57.359 46.9332L58.9279 48.5021ZM58.9279 32.8638L60.4968 31.2949L60.4967 31.2948L58.9279 32.8638ZM43.2895 32.8638L44.8584 34.4327L43.2895 32.8638ZM32.8638 43.2895L31.2949 41.7206L32.8638 43.2895ZM32.8638 58.9279L31.2948 60.4967L31.2949 60.4968L32.8638 58.9279ZM38.064 64.1256C39.2655 64.3664 40.4347 63.5876 40.6755 62.3861C40.9163 61.1846 40.1375 60.0154 38.936 59.7746L38.064 64.1256ZM44.1534 47.6389L45.7223 46.07L45.7222 46.0699L44.1534 47.6389ZM31.8438 25.1056C31.8438 21.1342 30.3271 17.1555 27.2947 14.1233L24.157 17.2611C26.3237 19.4277 27.4062 22.2629 27.4062 25.1056H31.8438ZM27.2947 14.1233C24.7032 11.5318 21.418 10.0457 18.0368 9.66983L17.5465 14.0802C19.9625 14.3487 22.3032 15.4074 24.157 17.2611L27.2947 14.1233ZM27.4062 25.1056C27.4062 27.9483 26.3237 30.7834 24.157 32.9501L27.2947 36.0879C30.3271 33.0556 31.8438 29.077 31.8438 25.1056H27.4062ZM24.157 32.95C19.8246 37.2823 12.8004 37.2823 8.46801 32.95L5.33028 36.0879C11.3956 42.153 21.2294 42.153 27.2947 36.0879L24.157 32.95ZM8.46805 32.9501C6.3014 30.7834 5.21875 27.9483 5.21875 25.1056H0.78125C0.78125 29.0771 2.29803 33.0556 5.33023 36.0878L8.46805 32.9501ZM29.625 22.8868H3V27.3243H29.625V22.8868ZM5.21875 25.1056C5.21875 22.263 6.30141 19.4277 8.46804 17.2611L5.33025 14.1233C2.29802 17.1555 0.78125 21.1342 0.78125 25.1056H5.21875ZM39.1717 19.7194C43.5039 24.0519 50.5281 24.0518 54.8606 19.7195L51.7228 16.5816C49.1233 19.1811 44.9088 19.181 42.3096 16.5817L39.1717 19.7194ZM54.8606 19.7195C57.0264 17.5537 58.1099 14.7107 58.1099 11.875H53.6724C53.6724 13.5819 53.023 15.2815 51.7228 16.5817L54.8606 19.7195ZM58.1099 11.875C58.1099 9.03926 57.0264 6.19627 54.8606 4.03051L51.7228 7.16833C53.023 8.46849 53.6724 10.1681 53.6724 11.875H58.1099ZM54.8606 4.03051C50.5281 -0.301799 43.5039 -0.301895 39.1717 4.03057L42.3096 7.16827C44.9088 4.56895 49.1233 4.56885 51.7228 7.16833L54.8606 4.03051ZM39.1718 4.03051C37.006 6.19627 35.9224 9.03926 35.9224 11.875H40.3599C40.3599 10.1681 41.0094 8.46849 42.3095 7.16833L39.1718 4.03051ZM35.9224 11.875C35.9224 14.7107 37.006 17.5537 39.1718 19.7195L42.3095 16.5817C41.0094 15.2815 40.3599 13.5819 40.3599 11.875H35.9224ZM50.071 60.4968L60.4968 50.071L57.359 46.9332L46.9332 57.359L50.071 60.4968ZM60.4968 50.071C65.6816 44.8862 65.6815 36.4799 60.4968 31.2949L57.3589 34.4326C60.8108 37.8848 60.8108 43.4815 57.359 46.9332L60.4968 50.071ZM60.4967 31.2948C55.3117 26.1102 46.9054 26.1101 41.7206 31.2949L44.8584 34.4327C48.3102 30.9809 53.9069 30.9808 57.359 34.4327L60.4967 31.2948ZM41.7206 31.2949L31.2949 41.7206L34.4327 44.8584L44.8584 34.4327L41.7206 31.2949ZM31.2949 41.7206C26.1101 46.9054 26.1102 55.3117 31.2948 60.4967L34.4327 57.359C30.9808 53.9069 30.9809 48.3102 34.4327 44.8584L31.2949 41.7206ZM31.2949 60.4968C33.215 62.4169 35.5831 63.6284 38.064 64.1256L38.936 59.7746C37.2865 59.4441 35.7146 58.6409 34.4327 57.359L31.2949 60.4968ZM38.5 38.5C36.3213 38.9199 36.3215 38.9208 36.3217 38.9218C36.3218 38.9221 36.322 38.9231 36.3221 38.9238C36.3224 38.9251 36.3226 38.9266 36.3229 38.9281C36.3235 38.9311 36.3242 38.9343 36.3249 38.9379C36.3263 38.945 36.3279 38.9531 36.3298 38.9623C36.3337 38.9807 36.3385 39.0032 36.3444 39.0299C36.3562 39.0832 36.3724 39.1528 36.3939 39.2378C36.4368 39.4078 36.5006 39.6395 36.5918 39.925C36.7742 40.4961 37.0663 41.2835 37.52 42.2249C38.4286 44.1102 39.9816 46.605 42.5845 49.2078L45.7222 46.0699C43.504 43.8518 42.2302 41.7772 41.5175 40.2983C41.1605 39.5576 40.9432 38.9642 40.8189 38.575C40.7568 38.3804 40.7179 38.237 40.6965 38.1521C40.6858 38.1096 40.6794 38.0817 40.6767 38.0694C40.6753 38.0633 40.6749 38.061 40.6752 38.0628C40.6754 38.0636 40.6758 38.0655 40.6764 38.0684C40.6767 38.0698 40.677 38.0715 40.6774 38.0735C40.6776 38.0745 40.6778 38.0755 40.678 38.0766C40.6781 38.0771 40.6783 38.078 40.6783 38.0783C40.6785 38.0792 40.6787 38.0801 38.5 38.5ZM42.5845 49.2078C45.1874 51.8107 47.6821 53.3635 49.5672 54.272C50.5085 54.7256 51.2959 55.0177 51.8669 55.2C52.1524 55.2912 52.384 55.355 52.554 55.3979C52.639 55.4193 52.7087 55.4355 52.762 55.4473C52.7886 55.4532 52.8112 55.458 52.8296 55.4618C52.8388 55.4637 52.8469 55.4654 52.854 55.4668C52.8575 55.4675 52.8608 55.4682 52.8638 55.4688C52.8653 55.469 52.8667 55.4693 52.8681 55.4696C52.8688 55.4697 52.8698 55.4699 52.8701 55.47C52.871 55.4702 52.872 55.4703 53.2917 53.2916C53.7113 51.113 53.7123 51.1131 53.7131 51.1133C53.7134 51.1134 53.7143 51.1135 53.7149 51.1136C53.716 51.1138 53.717 51.114 53.718 51.1142C53.7199 51.1146 53.7216 51.115 53.7231 51.1152C53.726 51.1158 53.7278 51.1162 53.7287 51.1164C53.7304 51.1167 53.7282 51.1163 53.722 51.1149C53.7098 51.1122 53.6819 51.1059 53.6395 51.0951C53.5546 51.0737 53.4112 51.0349 53.2167 50.9728C52.8276 50.8485 52.2343 50.6314 51.4937 50.2744C50.015 49.5619 47.9406 48.2883 45.7223 46.07L42.5845 49.2078Z" fill="#954DDC"/>
</svg>
