<svg width="68" height="68" viewBox="0 0 68 68" fill="none" xmlns="http://www.w3.org/2000/svg">
<path d="M51 20.2867C50.83 20.2583 50.6317 20.2583 50.4617 20.2867C46.5517 20.145 43.435 16.9433 43.435 12.9767C43.435 8.925 46.6933 5.66666 50.745 5.66666C54.7967 5.66666 58.055 8.95333 58.055 12.9767C58.0267 16.9433 54.91 20.145 51 20.2867Z" stroke="#954DDC" stroke-width="4" stroke-linecap="round" stroke-linejoin="round"/>
<path d="M48.0817 40.9134C51.9633 41.565 56.2417 40.885 59.245 38.8733C63.24 36.21 63.24 31.8467 59.245 29.1834C56.2133 27.1717 51.8783 26.4917 47.9967 27.1717" stroke="#954DDC" stroke-width="4" stroke-linecap="round" stroke-linejoin="round"/>
<path d="M16.915 20.2867C17.085 20.2583 17.2833 20.2583 17.4533 20.2867C21.3633 20.145 24.48 16.9433 24.48 12.9767C24.48 8.925 21.2217 5.66666 17.17 5.66666C13.1183 5.66666 9.86 8.95333 9.86 12.9767C9.88833 16.9433 13.005 20.145 16.915 20.2867Z" stroke="#954DDC" stroke-width="4" stroke-linecap="round" stroke-linejoin="round"/>
<path d="M19.8333 40.9134C15.9517 41.565 11.6733 40.885 8.67 38.8733C4.675 36.21 4.675 31.8467 8.67 29.1834C11.7017 27.1717 16.0367 26.4917 19.9183 27.1717" stroke="#954DDC" stroke-width="4" stroke-linecap="round" stroke-linejoin="round"/>
<path d="M34 41.4517C33.83 41.4233 33.6317 41.4233 33.4617 41.4517C29.5517 41.31 26.435 38.1083 26.435 34.1417C26.435 30.09 29.6933 26.8317 33.745 26.8317C37.7967 26.8317 41.055 30.1183 41.055 34.1417C41.0267 38.1083 37.91 41.3383 34 41.4517Z" stroke="#954DDC" stroke-width="4" stroke-linecap="round" stroke-linejoin="round"/>
<path d="M25.755 50.3766C21.76 53.04 21.76 57.4033 25.755 60.0666C30.2883 63.0983 37.7117 63.0983 42.245 60.0666C46.24 57.4033 46.24 53.04 42.245 50.3766C37.74 47.3733 30.2883 47.3733 25.755 50.3766Z" stroke="#954DDC" stroke-width="4" stroke-linecap="round" stroke-linejoin="round"/>
</svg>
