<svg width="68" height="68" viewBox="0 0 68 68" fill="none" xmlns="http://www.w3.org/2000/svg">
<path d="M34 3.54166C35.1736 3.54166 36.125 4.49306 36.125 5.66666V6.37904C36.4401 6.3838 36.7089 6.39411 36.9597 6.4163C42.0886 6.86983 46.1539 10.9353 46.6075 16.0641C46.6488 16.5328 46.6488 17.0639 46.6488 17.8439V21.3095C46.6488 32.2725 38.3072 41.287 27.625 42.3529V48.1669C27.625 54.8173 33.0163 60.2086 39.6667 60.2086H42.1668C46.1275 60.2086 49.5292 57.7946 50.9722 54.3495C51.085 54.0804 51.1638 53.7735 51.2125 53.4216C47.8006 52.3166 45.3333 49.1133 45.3333 45.3333C45.3333 40.6388 49.1391 36.8333 53.8333 36.8333C58.5279 36.8333 62.3333 40.6388 62.3333 45.3333C62.3333 49.4708 59.3773 52.9176 55.4619 53.6775C55.3837 54.4241 55.218 55.2137 54.8924 55.9915C52.8108 60.9608 47.8998 64.4586 42.1668 64.4586H39.6667C30.6691 64.4586 23.375 57.1645 23.375 48.1669V42.3569C12.2448 41.2879 3.54169 31.9104 3.54169 20.5L3.54166 17.8441C3.54158 17.064 3.54152 16.5329 3.58297 16.0641C4.03651 10.9353 8.10203 6.86983 13.2308 6.4163C13.6719 6.37728 14.1681 6.37505 14.875 6.37496V5.66666C14.875 4.49306 15.8264 3.54166 17 3.54166C18.1736 3.54166 19.125 4.49306 19.125 5.66666V11.3333C19.125 12.5069 18.1736 13.4583 17 13.4583C15.8264 13.4583 14.875 12.5069 14.875 11.3333V10.625C14.1287 10.6256 13.8378 10.6292 13.6051 10.6498C10.5279 10.9219 8.08857 13.3612 7.81645 16.4384C7.79376 16.6951 7.79169 17.0227 7.79169 17.9545V20.5C7.79169 30.2801 15.72 38.2083 25.5 38.2083C34.833 38.2083 42.3988 30.6425 42.3988 21.3095V17.9545C42.3988 17.0227 42.3969 16.6951 42.3739 16.4384C42.1019 13.3612 39.6627 10.9219 36.5854 10.6498C36.4656 10.6392 36.3301 10.6331 36.125 10.6296V11.3333C36.125 12.5069 35.1736 13.4583 34 13.4583C32.8264 13.4583 31.875 12.5069 31.875 11.3333V5.66666C31.875 4.49306 32.8264 3.54166 34 3.54166Z" fill="#954DDC"/>
</svg>
