<svg width="68" height="68" viewBox="0 0 68 68" fill="none" xmlns="http://www.w3.org/2000/svg">
<path d="M46.7484 8.64894C46.7484 5.09141 43.8541 2.19733 40.2968 2.19733C37.9204 2.19733 35.8414 3.48978 34.7219 5.40783C34.4989 5.39061 34.2745 5.37882 34.0471 5.37882C31.0075 5.37882 28.3329 6.93375 26.7711 9.29335H33.8776C33.9581 10.1021 34.1899 10.8664 34.5422 11.56H25.7058C25.4633 12.3602 25.3318 13.2124 25.3318 14.0919C25.3318 18.9063 29.235 22.8072 34.0471 22.8072C38.6827 22.8072 42.4712 19.1869 42.743 14.6175C45.0906 13.6517 46.7484 11.3408 46.7484 8.64894ZM40.2968 12.8339C37.9891 12.8339 36.1118 10.9566 36.1118 8.64894C36.1118 6.34125 37.9891 4.46399 40.2968 4.46399C42.6045 4.46399 44.4817 6.34147 44.4817 8.64894C44.4817 10.9564 42.6042 12.8339 40.2968 12.8339ZM40.3156 7.03054C41.2093 7.03054 41.934 7.75519 41.934 8.64894C41.934 9.54269 41.2093 10.2673 40.3156 10.2673C39.4219 10.2673 38.6972 9.54269 38.6972 8.64894C38.6972 7.75519 39.4216 7.03054 40.3156 7.03054ZM44.5021 25.3867H39.7025L35.5867 34.3185V25.3867H32.4133V34.3359L28.2982 25.3867H23.4976C17.2901 25.3867 12.24 30.437 12.24 36.6445V61.0867C12.24 63.8987 14.5277 66.1867 17.34 66.1867C18.816 66.1867 20.1479 65.5563 21.08 64.5506V66.1867H46.92V64.5506C47.852 65.5563 49.1837 66.1867 50.66 66.1867C53.472 66.1867 55.76 63.8987 55.76 61.0867V36.6445C55.76 30.437 50.7098 25.3867 44.5021 25.3867ZM53.04 61.0867C53.04 62.3991 51.9724 63.4667 50.66 63.4667C49.3476 63.4667 48.28 62.3991 48.28 61.0867V38.3067H44.2V63.4667H23.8V38.3067H19.72V61.0867C19.72 62.3991 18.6524 63.4667 17.34 63.4667C16.0276 63.4667 14.96 62.3991 14.96 61.0867V36.6445C14.96 31.9367 18.79 28.1067 23.4978 28.1067H26.5551L33.9916 44.2793L41.4442 28.1067H44.5021C49.21 28.1067 53.04 31.9367 53.04 36.6445V61.0867Z" fill="#954DDC"/>
</svg>
