<svg width="43" height="43" viewBox="0 0 43 43" fill="none" xmlns="http://www.w3.org/2000/svg">
<path d="M42.1106 21.0553C42.1106 18.0119 41.4508 15.0047 40.1768 12.2408C38.9027 9.47693 37.0446 7.02211 34.7305 5.04546C32.4164 3.0688 29.7012 1.61731 26.7722 0.790975C23.8431 -0.0353605 20.7697 -0.216896 17.7637 0.258875C14.7578 0.734646 11.8906 1.85641 9.35993 3.5469C6.82921 5.23738 4.69504 7.45639 3.10446 10.0511C1.51387 12.6457 0.504675 15.5544 0.146397 18.5766C-0.319885 22.5099 2.32011 25.9535 5.89748 27.6537L6.31423 27.8518C8.48112 28.8816 10.8502 29.4159 13.2493 29.4159H13.4167C10.8758 25.2136 11.2601 21.3056 11.4251 19.9137C11.5902 18.5217 12.055 17.1821 12.7876 15.987C13.5201 14.792 14.5031 13.7699 15.6687 12.9913C16.8343 12.2127 18.1548 11.6961 19.5393 11.477C20.9238 11.2578 22.3393 11.3414 23.6883 11.722C25.0374 12.1026 26.2879 12.7711 27.3538 13.6815C28.4196 14.5919 29.2754 15.7226 29.8622 16.9956C30.8306 19.0965 32.6282 21.0553 34.9416 21.0553H42.1106Z" fill="#954DDC"/>
<path d="M42.3533 29.8852C25.8489 53.9744 0 40.3826 0 24.9096C0.106293 24.4237 0.312337 25.2067 1.05462 26.2034C5.00629 31.5099 14.6459 32.7669 21.0737 31.1996C27.736 29.5753 35.4685 24.4008 42.3533 29.8852Z" fill="#954DDC"/>
<path d="M24.794 27.545C24.794 24.4666 30.0596 20.2798 35.1052 25.7989C31.2125 24.8914 28.4213 28.0466 24.794 27.545Z" fill="#954DDC"/>
</svg>
